<svg width="147" height="30" viewBox="0 0 147 30" fill="none" xmlns="http://www.w3.org/2000/svg">
<path d="M15 1.24707L11.25 11.2471L1.25 14.9971L11.25 18.7471L15 28.7471L18.75 18.7471L28.75 14.9971L18.75 11.2471L15 1.24707Z" fill="#D2F75A"/>
<path d="M45.106 22.5762C49.792 22.5762 51.662 20.4202 51.662 18.0222C51.662 15.9982 50.474 14.3922 47.174 13.8642L43.038 13.2042C41.806 12.9842 41.322 12.6762 41.322 11.8182C41.322 10.8722 42.048 10.4102 44.424 10.4102C47.35 10.4102 48.076 11.0042 48.076 12.4122V12.7202H51.398V12.5882C51.398 9.48619 49.286 7.39619 44.754 7.39619C39.804 7.39619 38 9.72819 38 11.9502C38 14.3482 39.562 15.6682 42.202 16.0862L46.338 16.6802C47.856 16.9442 48.362 17.2742 48.362 18.1762C48.362 19.1662 47.746 19.5622 45.106 19.5622C42.114 19.5622 41.432 19.0122 41.432 17.6482V17.2522H38.132V17.3842C38.132 20.8162 40.64 22.5762 45.106 22.5762Z" fill="white"/>
<path d="M62.5959 22.5762C67.5899 22.5762 70.6039 19.5842 70.6039 14.9862C70.6039 13.1602 70.1419 11.5982 69.2619 10.3662L70.8239 8.91419L69.2399 7.24219L67.6119 8.76019C66.2919 7.88019 64.6199 7.39619 62.5959 7.39619C57.7119 7.39619 54.6759 10.3882 54.6759 14.9862C54.6759 16.7902 55.1379 18.3522 55.9959 19.5842L54.3899 21.0802L55.9739 22.7522L57.6459 21.1902C58.9439 22.0922 60.6159 22.5762 62.5959 22.5762ZM58.1739 14.9862C58.1739 11.7082 59.3619 10.5642 62.5959 10.5642C63.6739 10.5642 64.5539 10.6962 65.2139 10.9822L58.4819 17.2742C58.2619 16.6582 58.1739 15.9102 58.1739 14.9862ZM62.5959 19.4082C61.5179 19.4082 60.6599 19.2762 60.0219 18.9902L66.7759 12.6982C66.9739 13.2922 67.0839 14.0622 67.0839 14.9862C67.0839 18.2642 65.8299 19.4082 62.5959 19.4082Z" fill="white"/>
<path d="M86.121 22.3562V19.3862H77.343V7.61619H74.043V22.3562H86.121Z" fill="white"/>
<path d="M99.2172 22.3562L105.333 7.61619H101.373L97.0173 19.0122H96.7972L92.3752 7.61619H88.3932L94.5092 22.3562H99.2172Z" fill="white"/>
<path d="M120.509 22.3562V19.3862H111.335V16.4162H120.179V13.4682H111.335V10.5862H120.509V7.61619H108.035V22.3562H120.509Z" fill="white"/>
<path d="M127.3 22.3562V7.61619H124V22.3562H127.3Z" fill="white"/>
<path d="M137.979 22.5762C141.169 22.5762 142.709 21.1242 143.215 19.1882H143.391V22.3562H146.449V14.5682H138.155V17.0102H143.149C143.061 18.8802 142.027 19.4082 138.639 19.4082C135.405 19.4082 134.195 18.2642 134.195 14.9862C134.195 11.7082 135.449 10.5642 138.793 10.5642C141.631 10.5642 142.753 11.3782 142.753 13.0942V13.2702H146.427V13.0942C146.427 9.55219 143.501 7.39619 138.881 7.39619C133.821 7.39619 130.697 10.3882 130.697 14.9862C130.697 19.5842 133.469 22.5762 137.979 22.5762Z" fill="white"/>
</svg>
