<svg viewBox="0 0 40 40" xmlns="http://www.w3.org/2000/svg" xmlns:xlink="http://www.w3.org/1999/xlink" width="40.000000" height="40.000000" fill="none">
	<rect id="material-symbols:low-priority-rounded" width="40.000000" height="40.000000" x="0.000000" y="0.000000" fill="rgb(255,255,255)" fill-opacity="0" transform="matrix(-4.37114e-08,1,-1,-4.37114e-08,40,0)" />
	<path id="Vector" d="M3.33333 10.7917C3.33333 12.7639 3.99333 14.4583 5.31333 15.875C6.63333 17.2917 8.27889 18.0833 10.25 18.25L8.83333 16.8333C8.52778 16.5278 8.375 16.1389 8.375 15.6667C8.375 15.1944 8.52778 14.8056 8.83333 14.5C9.13889 14.1944 9.52778 14.0417 10 14.0417C10.4722 14.0417 10.8611 14.1944 11.1667 14.5L15.5 18.8333C15.8333 19.1667 16 19.5556 16 20C16 20.4444 15.8333 20.8333 15.5 21.1667L11.1667 25.5C10.8611 25.8056 10.4722 25.9583 10 25.9583C9.52778 25.9583 9.13889 25.8056 8.83333 25.5C8.52778 25.1944 8.375 24.8056 8.375 24.3333C8.375 23.8611 8.52778 23.4722 8.83333 23.1667L10.3333 21.6667C7.41667 21.5 4.96556 20.375 2.98 18.2917C0.994445 16.2083 0.00111111 13.7222 0 10.8333C0 7.80556 1.04889 5.24333 3.14667 3.14667C5.24444 1.05 7.80667 0.00111111 10.8333 0L15 0C15.4722 0 15.8683 0.16 16.1883 0.48C16.5083 0.8 16.6678 1.19556 16.6667 1.66667C16.6656 2.13778 16.5056 2.53389 16.1867 2.855C15.8678 3.17611 15.4722 3.33556 15 3.33333L10.8333 3.33333C8.75 3.33333 6.97944 4.05556 5.52167 5.5C4.06389 6.94444 3.33444 8.70833 3.33333 10.7917ZM21.6667 18.3333L31.6667 18.3333C32.1389 18.3333 32.535 18.4933 32.855 18.8133C33.175 19.1333 33.3344 19.5289 33.3333 20C33.3322 20.4711 33.1722 20.8672 32.8533 21.1883C32.5344 21.5094 32.1389 21.6689 31.6667 21.6667L21.6667 21.6667C21.1944 21.6667 20.7989 21.5067 20.48 21.1867C20.1611 20.8667 20.0011 20.4711 20 20C19.9989 19.5289 20.1589 19.1333 20.48 18.8133C20.8011 18.4933 21.1967 18.3333 21.6667 18.3333ZM21.6667 9.16667L31.6667 9.16667C32.1389 9.16667 32.535 9.32667 32.855 9.64667C33.175 9.96667 33.3344 10.3622 33.3333 10.8333C33.3322 11.3044 33.1722 11.7006 32.8533 12.0217C32.5344 12.3428 32.1389 12.5022 31.6667 12.5L21.6667 12.5C21.1944 12.5 20.7989 12.34 20.48 12.02C20.1611 11.7 20.0011 11.3044 20 10.8333C19.9989 10.3622 20.1589 9.96667 20.48 9.64667C20.8011 9.32667 21.1967 9.16667 21.6667 9.16667ZM21.6667 0L31.6667 0C32.1389 0 32.535 0.16 32.855 0.48C33.175 0.8 33.3344 1.19556 33.3333 1.66667C33.3322 2.13778 33.1722 2.53389 32.8533 2.855C32.5344 3.17611 32.1389 3.33556 31.6667 3.33333L21.6667 3.33333C21.1944 3.33333 20.7989 3.17333 20.48 2.85333C20.1611 2.53333 20.0011 2.13778 20 1.66667C19.9989 1.19556 20.1589 0.8 20.48 0.48C20.8011 0.16 21.1967 0 21.6667 0Z" fill="rgb(255,255,255)" fill-rule="nonzero" transform="matrix(-4.37114e-08,1,-1,-4.37114e-08,31.667,3.3335)" />
</svg>
