<svg viewBox="0 0 106.25 195.122" xmlns="http://www.w3.org/2000/svg" xmlns:xlink="http://www.w3.org/1999/xlink" width="106.250000" height="195.121948" fill="none" customFrame="#000000">
	<g id="Group">
		<path id="Vector" d="M67.3808 19.7783L38.876 19.7783L38.876 28.7991L67.3808 28.7991L67.3808 19.7783Z" fill="rgb(179,229,252)" fill-rule="evenodd" />
		<path id="Vector" d="M67.452 19.9718L38.7964 19.9718C37.8355 19.9718 37.0566 20.7113 37.0566 21.6235C37.0566 22.5358 37.8355 23.2753 38.7964 23.2753L67.452 23.2753C68.4129 23.2753 69.1918 22.5358 69.1918 21.6235C69.1918 20.7113 68.4129 19.9718 67.452 19.9718Z" fill="rgb(91,168,186)" fill-rule="evenodd" />
		<path id="Vector" d="M65.9216 0L40.3299 0C37.6938 0 35.5547 2.02696 35.5547 4.53358L35.5547 21.9059L70.6928 21.9059L70.6928 4.53358C70.6928 2.03083 68.5578 0 65.9216 0Z" fill="rgb(179,229,252)" fill-rule="nonzero" />
		<path id="Vector" d="M85.5176 195.122L20.7298 195.122C12.1408 195.122 5.18164 188.511 5.18164 180.361L5.18164 59.4356C5.18164 55.0258 7.38595 50.8791 11.1222 48.2603L38.8692 28.803L67.3741 28.803L95.1212 48.2603C98.8574 50.8791 101.062 55.0258 101.062 59.4356L101.062 180.361C101.062 188.515 94.0984 195.122 85.5136 195.122L85.5176 195.122Z" fill="rgb(179,229,252)" fill-rule="nonzero" />
		<path id="Vector" d="M101.812 157.801L4.43709 157.801C1.98655 157.801 0 159.687 0 162.014L0 174.91C0 177.237 1.98655 179.123 4.43709 179.123L101.812 179.123C104.263 179.123 106.25 177.237 106.25 174.91L106.25 162.014C106.25 159.687 104.263 157.801 101.812 157.801Z" fill="rgb(179,229,252)" fill-rule="evenodd" />
		<path id="Vector" d="M101.812 75.1677L4.43709 75.1677C1.98655 75.1677 0 77.0537 0 79.3802L0 92.277C0 94.6035 1.98655 96.4895 4.43709 96.4895L101.812 96.4895C104.263 96.4895 106.25 94.6035 106.25 92.277L106.25 79.3802C106.25 77.0537 104.263 75.1677 101.812 75.1677Z" fill="rgb(179,229,252)" fill-rule="evenodd" />
		<path id="Vector" d="M20.7304 193.087C13.3393 193.087 7.32544 187.378 7.32544 180.361L7.32544 177.088L4.43667 177.088C3.16951 177.088 2.13867 176.11 2.13867 174.907L2.13867 162.01C2.13867 160.807 3.16951 159.828 4.43667 159.828L7.32544 159.828L7.32544 94.4509L4.43667 94.4509C3.16951 94.4509 2.13867 93.4723 2.13867 92.2692L2.13867 79.3725C2.13867 78.1695 3.16951 77.1908 4.43667 77.1908L7.32544 77.1908L7.32544 59.424C7.32544 55.6756 9.22009 52.1091 12.3941 49.8849L39.5747 30.826L66.6699 30.826L93.8505 49.8849C97.0245 52.113 98.9192 55.6795 98.9192 59.424L98.9192 77.1908L101.808 77.1908C103.075 77.1908 104.106 78.1695 104.106 79.3725L104.106 92.2692C104.106 93.4723 103.075 94.4509 101.808 94.4509L98.9192 94.4509L98.9192 159.828L101.808 159.828C103.075 159.828 104.106 160.807 104.106 162.01L104.106 174.907C104.106 176.11 103.075 177.088 101.808 177.088L98.9192 177.088L98.9192 180.361C98.9192 187.378 92.9053 193.087 85.5142 193.087L20.7263 193.087L20.7304 193.087Z" fill="rgb(79,195,247)" fill-rule="nonzero" />
		<g id="Group" style="mix-blend-mode:multiply">
			<path id="Vector" d="M101.066 96.4895L5.18164 96.4895L5.18164 99.1547L101.066 99.1547L101.066 96.4895Z" fill="rgb(121,207,226)" fill-rule="evenodd" />
		</g>
		<g id="Group" style="mix-blend-mode:multiply">
			<path id="Vector" d="M101.066 179.123L5.18164 179.123L5.18164 181.788L101.066 181.788L101.066 179.123Z" fill="rgb(121,207,226)" fill-rule="evenodd" />
		</g>
		<path id="Vector" d="M83.8079 146.529C85.1963 146.529 86.3218 145.461 86.3218 144.142C86.3218 142.824 85.1963 141.756 83.8079 141.756C82.4195 141.756 81.2939 142.824 81.2939 144.142C81.2939 145.461 82.4195 146.529 83.8079 146.529Z" fill="rgb(179,229,252)" fill-rule="evenodd" />
		<path id="Vector" d="M92.8527 67.5975C92.8527 66.4758 91.8952 65.5629 90.7096 65.5629C89.5239 65.5629 88.5664 66.4719 88.5664 67.5975C88.5664 68.7232 89.5239 69.6322 90.7096 69.6322C91.8952 69.6322 92.8527 68.7232 92.8527 67.5975Z" fill="rgb(179,229,252)" fill-rule="nonzero" />
		<path id="Vector" d="M82.6303 135.118C83.4854 135.118 84.1786 134.46 84.1786 133.648C84.1786 132.836 83.4854 132.178 82.6303 132.178C81.7752 132.178 81.082 132.836 81.082 133.648C81.082 134.46 81.7752 135.118 82.6303 135.118Z" fill="rgb(179,229,252)" fill-rule="evenodd" />
		<path id="Vector" d="M34.41 153.538C36.2102 153.538 37.6695 152.153 37.6695 150.444C37.6695 148.735 36.2102 147.349 34.41 147.349C32.6097 147.349 31.1504 148.735 31.1504 150.444C31.1504 152.153 32.6097 153.538 34.41 153.538Z" fill="rgb(179,229,252)" fill-rule="evenodd" />
		<path id="Vector" d="M21.5502 143.756C21.5502 143.28 21.1469 142.897 20.6457 142.897C20.1446 142.897 19.7412 143.28 19.7412 143.756C19.7412 144.231 20.1446 144.614 20.6457 144.614C21.1469 144.614 21.5502 144.231 21.5502 143.756Z" fill="rgb(179,229,252)" fill-rule="nonzero" />
		<path id="Vector" d="M92.5181 105.379C92.5181 104.907 92.1147 104.52 91.6135 104.52C91.1123 104.52 90.709 104.903 90.709 105.379C90.709 105.855 91.1123 106.238 91.6135 106.238C92.1147 106.238 92.5181 105.855 92.5181 105.379Z" fill="rgb(179,229,252)" fill-rule="nonzero" />
		<path id="Vector" d="M54.0317 61.625C54.0317 61.1492 53.6283 60.7662 53.1272 60.7662C52.626 60.7662 52.2227 61.1492 52.2227 61.625C52.2227 62.1008 52.626 62.4837 53.1272 62.4837C53.6283 62.4837 54.0317 62.1008 54.0317 61.625Z" fill="rgb(179,229,252)" fill-rule="nonzero" />
		<path id="Vector" d="M71.6538 186.774C71.6538 186.298 71.2504 185.916 70.7492 185.916C70.2481 185.916 69.8447 186.298 69.8447 186.774C69.8447 187.25 70.2481 187.633 70.7492 187.633C71.2504 187.633 71.6538 187.25 71.6538 186.774Z" fill="rgb(179,229,252)" fill-rule="nonzero" />
		<path id="Vector" d="M39.7739 84.9698C39.7739 84.494 39.3705 84.1111 38.8694 84.1111C38.3682 84.1111 37.9648 84.494 37.9648 84.9698C37.9648 85.4456 38.3682 85.8286 38.8694 85.8286C39.3705 85.8286 39.7739 85.4456 39.7739 84.9698Z" fill="rgb(179,229,252)" fill-rule="nonzero" />
		<path id="Vector" d="M30.1093 64.4411C30.1093 63.8222 29.5796 63.3193 28.9277 63.3193C28.2758 63.3193 27.7461 63.8222 27.7461 64.4411C27.7461 65.0601 28.2758 65.5629 28.9277 65.5629C29.5796 65.5629 30.1093 65.0601 30.1093 64.4411Z" fill="rgb(179,229,252)" fill-rule="nonzero" />
		<path id="Vector" d="M59.226 50.7591C59.226 50.2833 58.8227 49.9004 58.3215 49.9004C57.8204 49.9004 57.417 50.2833 57.417 50.7591C57.417 51.2349 57.8204 51.6179 58.3215 51.6179C58.8227 51.6179 59.226 51.2349 59.226 50.7591Z" fill="rgb(179,229,252)" fill-rule="nonzero" />
		<path id="Vector" d="M70.7324 55.3779C70.7324 54.1014 69.6405 53.0647 68.2959 53.0647C66.9513 53.0647 65.8594 54.1014 65.8594 55.3779C65.8594 56.6544 66.9513 57.6911 68.2959 57.6911C69.6405 57.6911 70.7324 56.6544 70.7324 55.3779Z" fill="rgb(179,229,252)" fill-rule="nonzero" />
		<path id="Vector" d="M22.1653 107.452C23.3715 107.452 24.3492 106.524 24.3492 105.379C24.3492 104.234 23.3715 103.305 22.1653 103.305C20.9592 103.305 19.9814 104.234 19.9814 105.379C19.9814 106.524 20.9592 107.452 22.1653 107.452Z" fill="rgb(179,229,252)" fill-rule="evenodd" />
		<path id="Vector" d="M60.1265 38.8798C60.1265 38.1409 59.4949 37.5375 58.7127 37.5375C57.9304 37.5375 57.2988 38.1371 57.2988 38.8798C57.2988 39.6225 57.9304 40.222 58.7127 40.222C59.4949 40.222 60.1265 39.6225 60.1265 38.8798Z" fill="rgb(179,229,252)" fill-rule="nonzero" />
		<path id="Vector" d="M47.397 56.7936C47.397 55.4822 46.2765 54.4185 44.8953 54.4185C43.514 54.4185 42.3936 55.4822 42.3936 56.7936C42.3936 58.1049 43.514 59.1687 44.8953 59.1687C46.2765 59.1687 47.397 58.1049 47.397 56.7936Z" fill="rgb(179,229,252)" fill-rule="nonzero" />
		<path id="Vector" d="M86.3737 111.641C86.3737 110.489 85.3917 109.556 84.1775 109.556C82.9633 109.556 81.9814 110.489 81.9814 111.641C81.9814 112.794 82.9633 113.726 84.1775 113.726C85.3917 113.726 86.3737 112.794 86.3737 111.641Z" fill="rgb(179,229,252)" fill-rule="nonzero" />
		<path id="Vector" d="M38.5333 188.248C40.1152 188.248 41.3976 187.031 41.3976 185.529C41.3976 184.027 40.1152 182.809 38.5333 182.809C36.9514 182.809 35.6689 184.027 35.6689 185.529C35.6689 187.031 36.9514 188.248 38.5333 188.248Z" fill="rgb(179,229,252)" fill-rule="evenodd" />
		<path id="Vector" d="M13.854 150.103C13.854 149.365 13.2225 148.761 12.4402 148.761C11.6579 148.761 11.0264 149.361 11.0264 150.103C11.0264 150.846 11.6579 151.446 12.4402 151.446C13.2225 151.446 13.854 150.846 13.854 150.103Z" fill="rgb(179,229,252)" fill-rule="nonzero" />
		<path id="Vector" d="M22.145 136.832C22.145 135.4 20.9227 134.244 19.4192 134.244C17.9157 134.244 16.6934 135.404 16.6934 136.832C16.6934 138.259 17.9157 139.419 19.4192 139.419C20.9227 139.419 22.145 138.259 22.145 136.832Z" fill="rgb(179,229,252)" fill-rule="nonzero" />
		<path id="Vector" d="M0.827094 176.945L0.827094 164.048C0.827094 161.72 2.81543 159.836 5.26418 159.836L102.635 159.836C104.127 159.836 105.443 160.536 106.249 161.608C106.034 159.472 104.139 157.801 101.833 157.801L4.4615 157.801C2.00868 157.801 0.0244141 159.689 0.0244141 162.014L0.0244141 174.91C0.0244141 175.819 0.330006 176.663 0.847461 177.351C0.835238 177.216 0.827094 177.08 0.827094 176.945Z" fill="rgb(164,229,244)" fill-rule="nonzero" />
		<path id="Vector" d="M0.827094 94.3078L0.827094 81.411C0.827094 79.0824 2.81543 77.1985 5.26418 77.1985L102.635 77.1985C104.127 77.1985 105.443 77.8987 106.249 78.9702C106.034 76.8349 104.139 75.1638 101.833 75.1638L4.4615 75.1638C2.00868 75.1638 0.0244141 77.0515 0.0244141 79.3763L0.0244141 92.2731C0.0244141 93.1821 0.330006 94.0254 0.847461 94.7139C0.835238 94.5786 0.827094 94.4432 0.827094 94.3078Z" fill="rgb(164,229,244)" fill-rule="nonzero" />
		<path id="Vector" d="M53.1264 149.047C64.4722 149.047 73.6698 140.315 73.6698 129.544C73.6698 118.772 64.4722 110.04 53.1264 110.04C41.7806 110.04 32.583 118.772 32.583 129.544C32.583 140.315 41.7806 149.047 53.1264 149.047Z" fill="rgb(164,229,244)" fill-rule="evenodd" />
		<path id="Vector" d="M60.9176 131.76C60.9176 138.994 57.4299 142.638 53.1273 142.638C48.8246 142.638 45.3369 138.994 45.3369 131.76C45.3369 124.527 53.1273 116.442 53.1273 116.442C53.1273 116.442 60.9176 124.527 60.9176 131.76Z" fill="rgb(255,255,255)" fill-rule="nonzero" />
		<path id="Vector" d="M53.1266 19.7783L53.1266 0L40.3328 0C37.6967 0 35.5576 2.03083 35.5576 4.53358L35.5576 21.9059L37.0896 21.9059C37.2322 22.6834 37.9411 23.2791 38.8008 23.2791L38.8742 23.2791L38.8742 28.8029L11.1272 48.2602C7.39091 50.879 5.1866 55.0258 5.1866 59.4356L5.1866 75.1677L4.44099 75.1677C1.98817 75.1677 0.00390625 77.0554 0.00390625 79.3802L0.00390625 92.277C0.00390625 94.6056 1.99225 96.4895 4.44099 96.4895L5.1866 96.4895L5.1866 157.801L4.44099 157.801C1.98817 157.801 0.00390625 159.689 0.00390625 162.014L0.00390625 174.91C0.00390625 177.239 1.99225 179.123 4.44099 179.123L5.1866 179.123L5.1866 180.361C5.1866 188.515 12.1499 195.122 20.7347 195.122L53.1266 195.122L53.1266 19.7783Z" opacity="0.159999996" fill="rgb(249,249,249)" fill-rule="nonzero" />
	</g>
</svg>
