<svg width="263" height="49" viewBox="0 0 263 49" fill="none" xmlns="http://www.w3.org/2000/svg">
<path d="M41.8467 26.6982C41.8434 24.6656 40.3274 22.9417 38.3222 22.6074C33.4207 21.7897 27.2549 22.2903 20.9231 26.7327C13.0935 32.2266 5.51685 31.6922 0.271484 30.0904C1.87865 40.0492 10.5108 47.6559 20.9231 47.6559C32.4789 47.6559 41.8462 38.2881 41.8462 26.7327C41.8467 26.7212 41.8467 26.7097 41.8467 26.6982Z" fill="#27AAE1"/>
<path d="M0.873203 28.1204C5.32751 29.4799 12.0338 30.0927 19.0305 25.5258C13.372 22.2138 7.9356 21.8712 3.52442 22.6076C1.51927 22.9424 0.0032858 24.6658 0 26.6985C0 26.71 0 26.7215 0 26.733C0 27.1125 0.0115082 27.4891 0.031223 27.8637L0.873203 28.1204Z" fill="#01D80C"/>
<path d="M41.8467 26.6982C41.8434 24.6656 40.3274 22.9417 38.3222 22.6074C33.4207 21.7897 27.2549 22.2903 20.9231 26.7327C13.0935 32.2266 5.51685 31.6922 0.271484 30.0904C1.87865 40.0492 10.5108 47.6559 20.9231 47.6559C32.4789 47.6559 41.8462 38.2881 41.8462 26.7327C41.8467 26.7212 41.8467 26.7097 41.8467 26.6982Z" fill="#2185C5"/>
<path d="M26.1162 12.9839L20.9246 4.12585L15.7326 12.9839C13.3812 16.9955 16.2744 22.0445 20.9246 22.0445C25.5744 22.0449 28.4671 16.9959 26.1162 12.9839Z" fill="#1A5F95"/>
<path d="M261.644 7.00261V27.9726H257.026V25.2473C255.02 27.5563 253.014 28.4647 250.061 28.4647C243.929 28.4647 239.5 23.8846 239.5 17.5633C239.5 11.1663 243.967 6.51054 250.175 6.51054C253.203 6.51054 255.285 7.49469 257.026 9.80366V7.00261H261.644ZM250.629 11.1285C247.109 11.1285 244.573 13.8917 244.573 17.6769C244.573 21.3485 247.109 23.8468 250.78 23.8468C254.414 23.8468 256.874 21.3107 256.874 17.5633C256.874 13.7781 254.301 11.1285 250.629 11.1285Z" fill="#1A5F95"/>
<path d="M236.032 7.00259V27.9726H231.376V25.9665C229.446 27.8212 227.894 28.4647 225.358 28.4647C222.519 28.4647 220.21 27.2913 218.847 25.1716C217.75 23.4682 217.371 21.6892 217.371 18.2446V7.00259H222.406V17.2605C222.406 20.1751 222.708 21.6513 223.465 22.5976C224.185 23.4304 225.093 23.8467 226.38 23.8467C228.121 23.8467 229.56 23.1276 230.279 21.8406C230.809 20.8943 230.998 19.5695 230.998 16.882V7.00259H236.032Z" fill="#1A5F95"/>
<path d="M207.992 27.9728V23.1277H213.027V27.9728H207.992Z" fill="#1A5F95"/>
<path d="M184.271 27.9726V0H189.306V8.441C190.82 7.07832 192.448 6.47269 194.643 6.47269C197.709 6.47269 200.207 7.72181 201.57 9.95508C202.516 11.507 202.857 13.1725 202.857 16.125V27.9726H197.823V17.2605C197.823 12.8318 196.687 11.1285 193.734 11.1285C191.993 11.1285 190.706 11.8477 189.987 13.2482C189.495 14.1567 189.306 15.3301 189.306 17.3362V27.9726H184.271Z" fill="#1A5F95"/>
<path d="M162.824 27.9726V0H167.859V16.882L174.558 7.00262H180.577L173.082 17.2605L181.788 27.9726H175.013L167.859 18.169V27.9726H162.824Z" fill="#1A5F95"/>
<path d="M152.556 27.9728V23.1277H157.59V27.9728H152.556Z" fill="#1A5F95"/>
<path d="M141.772 27.9726V7.00258H146.39V9.04658C147.714 7.07828 148.774 6.5105 150.932 6.5105H151.31V11.3556C148.282 11.4313 146.806 13.0589 146.806 16.3142V27.9726H141.772Z" fill="#1A5F95"/>
<path d="M138.109 19.7208H121.871C122.476 22.2569 124.672 23.8467 127.662 23.8467C129.744 23.8467 130.993 23.2789 132.28 21.7649H137.769C137.428 22.8247 136.898 23.6953 136.103 24.6795C133.908 27.2534 131.22 28.4647 127.776 28.4647C121.379 28.4647 116.42 23.6953 116.42 17.5633C116.42 11.3934 121.303 6.5105 127.473 6.5105C133.718 6.5105 138.299 11.2799 138.299 17.7904C138.299 18.5474 138.261 19.0017 138.109 19.7208ZM121.719 15.2922H133.34C132.696 12.6047 130.652 11.1284 127.549 11.1284C124.558 11.1284 122.514 12.5668 121.719 15.2922Z" fill="#1A5F95"/>
<path d="M106.586 27.9726V11.5827H104.125V7.00262H106.586V0H111.62V7.00262H114.648V11.5827H111.62V27.9726H106.586Z" fill="#1A5F95"/>
<path d="M101.211 7.00261V27.9726H96.5927V25.2473C94.5866 27.5563 92.5804 28.4647 89.628 28.4647C83.4959 28.4647 79.0673 23.8846 79.0673 17.5633C79.0673 11.1663 83.5338 6.51054 89.7415 6.51054C92.7697 6.51054 94.8516 7.49469 96.5927 9.80366V7.00261H101.211ZM90.1958 11.1285C86.6755 11.1285 84.1394 13.8917 84.1394 17.6769C84.1394 21.3485 86.6755 23.8468 90.3472 23.8468C93.981 23.8468 96.4413 21.3107 96.4413 17.5633C96.4413 13.7781 93.8674 11.1285 90.1958 11.1285Z" fill="#1A5F95"/>
<path d="M56.6258 27.9726L49.1311 7.00259H54.5439L58.2913 19.7966L61.8115 7.00259H65.8238L69.2684 19.7966L73.0914 7.00259H78.4664L70.896 27.9726H67.7543L63.7798 14.3837L59.7297 27.9726H56.6258Z" fill="#1A5F95"/>
<path d="M260.765 35.7534H262.221V46.52H260.765V37.8201L254.21 46.52H252.754V35.7534H254.21V44.4533L260.765 35.7534Z" fill="#01D80C"/>
<path d="M249.45 46.52H240.002L239.471 49.0001H238.467V45.2013H239.864L243.899 35.7534H245.553L249.588 45.2013H250.985V49.0001H249.981L249.45 46.52ZM248.052 45.2013L244.726 37.4068L241.4 45.2013H248.052Z" fill="#01D80C"/>
<path d="M232.533 35.4975C235.702 35.4975 238.064 37.9186 238.064 41.1663C238.064 44.3943 235.742 46.7759 232.573 46.7759C229.286 46.7759 226.825 44.3746 226.825 41.1466C226.825 37.8792 229.227 35.4975 232.533 35.4975ZM232.415 36.836C230.053 36.836 228.301 38.6862 228.301 41.1663C228.301 43.6266 230.093 45.4375 232.533 45.4375C234.895 45.4375 236.588 43.666 236.588 41.1859C236.588 38.6468 234.856 36.836 232.415 36.836Z" fill="#01D80C"/>
<path d="M217.964 41.5204V45.2012H220.739C222.353 45.2012 223.613 44.6894 223.613 43.3116C223.613 41.9338 222.353 41.5204 220.739 41.5204H217.964ZM224.538 38.5877C224.538 39.749 223.632 40.4969 223.081 40.7331C224.479 41.2449 225.089 42.17 225.089 43.3116C225.089 45.1421 223.475 46.5199 221.113 46.5199H216.507V35.7533H220.818C223.101 35.7533 224.538 36.7768 224.538 38.5877ZM223.14 38.5877C223.14 37.4657 222.077 37.0721 220.581 37.0721H217.964V40.2017H220.581C222.077 40.2017 223.14 39.7096 223.14 38.5877Z" fill="#01D80C"/>
<path d="M205.279 31.7773H206.736V34.2574H205.279V31.7773ZM208.172 31.7773H209.629V34.2574H208.172V31.7773ZM206.736 46.5199V35.7533H208.192V46.5199H206.736Z" fill="#01D80C"/>
<path d="M198.915 35.4976C202.084 35.4976 204.446 37.9186 204.446 41.1663C204.446 44.3943 202.123 46.776 198.954 46.776C195.667 46.776 193.207 44.3746 193.207 41.1466C193.207 37.8792 195.608 35.4976 198.915 35.4976ZM198.797 36.836C196.435 36.836 194.683 38.6862 194.683 41.1663C194.683 43.6267 196.474 45.4375 198.915 45.4375C201.277 45.4375 202.97 43.666 202.97 41.186C202.97 38.6469 201.238 36.836 198.797 36.836Z" fill="#01D80C"/>
<path d="M190.952 46.52H189.496V41.6977H183.04V46.52H181.583V35.7534H183.04V40.3789H189.496V35.7534H190.952V46.52Z" fill="#01D80C"/>
<path d="M179.914 37.0722H177.119V46.52H175.662V37.0722H172.828V35.7534H179.914V37.0722Z" fill="#01D80C"/>
<path d="M169.69 35.7534H171.146V46.52H169.69V37.8201L163.135 46.52H161.679V35.7534H163.135V44.4533L169.69 35.7534Z" fill="#01D80C"/>
<path d="M159.009 46.52H157.552V37.0722H151.195V46.52H149.738V35.7534H159.009V46.52Z" fill="#01D80C"/>
<path d="M141.412 35.7534V46.52H139.955V44.6305C138.814 46.1658 137.652 46.7759 135.822 46.7759C132.496 46.7759 130.035 44.3943 130.035 41.1663C130.035 37.9382 132.476 35.4975 135.704 35.4975C137.574 35.4975 138.873 36.1471 139.955 37.6627V35.7534H141.412ZM135.684 36.836C133.381 36.836 131.511 38.7452 131.511 41.1072C131.511 43.5282 133.421 45.4375 135.802 45.4375C138.145 45.4375 139.955 43.5479 139.955 41.1072C139.955 38.6665 138.125 36.836 135.684 36.836Z" fill="#01D80C"/>
<path d="M120.989 35.7534H122.446V40.5561L127.367 35.7534H129.256L123.883 40.9694L129.256 46.52H127.347L122.446 41.4418V46.52H120.989V35.7534Z" fill="#01D80C"/>
<path d="M111.715 41.5205V45.2013H114.491C116.105 45.2013 117.364 44.6895 117.364 43.3117C117.364 41.9339 116.105 41.5205 114.491 41.5205H111.715ZM118.289 38.5878C118.289 39.7491 117.384 40.497 116.833 40.7332C118.23 41.245 118.841 42.1701 118.841 43.3117C118.841 45.1422 117.227 46.52 114.865 46.52H110.259V35.7534H114.569C116.853 35.7534 118.289 36.7769 118.289 38.5878ZM116.892 38.5878C116.892 37.4658 115.829 37.0722 114.333 37.0722H111.715V40.2018H114.333C115.829 40.2018 116.892 39.7097 116.892 38.5878Z" fill="#01D80C"/>
<path d="M107.589 35.7534V46.52H106.132V44.6305C104.991 46.1658 103.829 46.7759 101.999 46.7759C98.6723 46.7759 96.2119 44.3943 96.2119 41.1663C96.2119 37.9382 98.6526 35.4975 101.881 35.4975C103.751 35.4975 105.05 36.1471 106.132 37.6627V35.7534H107.589ZM101.861 36.836C99.558 36.836 97.6881 38.7452 97.6881 41.1072C97.6881 43.5282 99.5974 45.4375 101.979 45.4375C104.321 45.4375 106.132 43.5479 106.132 41.1072C106.132 38.6665 104.302 36.836 101.861 36.836Z" fill="#01D80C"/>
<path d="M95.3984 37.0721H92.6034V46.5199H91.1469V37.0721H88.3125V35.7533H95.3984V37.0721Z" fill="#01D80C"/>
<path d="M85.7948 43.3511H87.4482C86.838 44.4927 86.405 45.0635 85.6767 45.6146C84.6926 46.3823 83.4722 46.7759 82.1732 46.7759C78.8664 46.7759 76.3076 44.3155 76.3076 41.1072C76.3076 37.9776 78.8467 35.4975 82.0747 35.4975C84.5154 35.4975 86.5625 36.8557 87.4285 39.0208H85.7948C84.9682 37.6036 83.6494 36.836 82.0551 36.836C79.6537 36.836 77.7838 38.7256 77.7838 41.1466C77.7838 43.5479 79.6931 45.4375 82.1141 45.4375C83.6494 45.4375 84.6729 44.847 85.7948 43.3511Z" fill="#01D80C"/>
<path d="M68.921 35.4976C72.0899 35.4976 74.4519 37.9186 74.4519 41.1663C74.4519 44.3943 72.1293 46.776 68.9603 46.776C65.6733 46.776 63.2129 44.3746 63.2129 41.1466C63.2129 37.8792 65.6142 35.4976 68.921 35.4976ZM68.8029 36.836C66.4409 36.836 64.6891 38.6862 64.6891 41.1663C64.6891 43.6267 66.4803 45.4375 68.921 45.4375C71.2829 45.4375 72.9757 43.666 72.9757 41.186C72.9757 38.6469 71.2436 36.836 68.8029 36.836Z" fill="#01D80C"/>
<path d="M61.282 46.52H51.8341L51.3027 49.0001H50.2988V45.2013H51.6963L55.7313 35.7534H57.3847L61.4197 45.2013H62.8172V49.0001H61.8134L61.282 46.52ZM59.8845 45.2013L56.558 37.4068L53.2316 45.2013H59.8845Z" fill="#01D80C"/>
</svg>
